<?xml version="1.0" encoding="UTF-8"?>
<!DOCTYPE svg PUBLIC "-//W3C//DTD SVG 1.1//EN" "http://www.w3.org/Graphics/SVG/1.1/DTD/svg11.dtd">
<svg width="346mm" height="145mm" viewBox="0 0 34600 14500" version="1.1" baseProfile="tiny" xmlns="http://www.w3.org/2000/svg" stroke-width="28.222" stroke-linejoin="round" xml:space="preserve">
 <path fill="rgb(255,255,255)" stroke="none" d="M 17321,14477 L 0,14477 0,0 34641,0 34641,14477 17321,14477 Z"/>
 <path fill="none" stroke="rgb(179,179,179)" stroke-linejoin="round" d="M 16837,11749 L 1612,11749 1612,1572 32061,1572 32061,11749 16837,11749 Z"/>
 <path fill="none" stroke="rgb(179,179,179)" stroke-linejoin="round" d="M 32061,11748 L 1612,11748"/>
 <path fill="none" stroke="rgb(179,179,179)" stroke-linejoin="round" d="M 32061,10730 L 1612,10730"/>
 <path fill="none" stroke="rgb(179,179,179)" stroke-linejoin="round" d="M 32061,9712 L 1612,9712"/>
 <path fill="none" stroke="rgb(179,179,179)" stroke-linejoin="round" d="M 32061,8694 L 1612,8694"/>
 <path fill="none" stroke="rgb(179,179,179)" stroke-linejoin="round" d="M 32061,7676 L 1612,7676"/>
 <path fill="none" stroke="rgb(179,179,179)" stroke-linejoin="round" d="M 32061,6660 L 1612,6660"/>
 <path fill="none" stroke="rgb(179,179,179)" stroke-linejoin="round" d="M 32061,5642 L 1612,5642"/>
 <path fill="none" stroke="rgb(179,179,179)" stroke-linejoin="round" d="M 32061,4624 L 1612,4624"/>
 <path fill="none" stroke="rgb(179,179,179)" stroke-linejoin="round" d="M 32061,3606 L 1612,3606"/>
 <path fill="none" stroke="rgb(179,179,179)" stroke-linejoin="round" d="M 32061,2588 L 1612,2588"/>
 <path fill="none" stroke="rgb(179,179,179)" stroke-linejoin="round" d="M 32061,1571 L 1612,1571"/>
 <path fill="none" stroke="rgb(179,179,179)" stroke-linejoin="round" d="M 1612,11898 L 1612,11748"/>
 <path fill="none" stroke="rgb(179,179,179)" stroke-linejoin="round" d="M 1612,11898 L 1612,11748"/>
 <path fill="none" stroke="rgb(179,179,179)" stroke-linejoin="round" d="M 2880,11898 L 2880,11748"/>
 <path fill="none" stroke="rgb(179,179,179)" stroke-linejoin="round" d="M 2880,11898 L 2880,11748"/>
 <path fill="none" stroke="rgb(179,179,179)" stroke-linejoin="round" d="M 4149,11898 L 4149,11748"/>
 <path fill="none" stroke="rgb(179,179,179)" stroke-linejoin="round" d="M 4149,11898 L 4149,11748"/>
 <path fill="none" stroke="rgb(179,179,179)" stroke-linejoin="round" d="M 5418,11898 L 5418,11748"/>
 <path fill="none" stroke="rgb(179,179,179)" stroke-linejoin="round" d="M 5418,11898 L 5418,11748"/>
 <path fill="none" stroke="rgb(179,179,179)" stroke-linejoin="round" d="M 6687,11898 L 6687,11748"/>
 <path fill="none" stroke="rgb(179,179,179)" stroke-linejoin="round" d="M 6687,11898 L 6687,11748"/>
 <path fill="none" stroke="rgb(179,179,179)" stroke-linejoin="round" d="M 7955,11898 L 7955,11748"/>
 <path fill="none" stroke="rgb(179,179,179)" stroke-linejoin="round" d="M 7955,11898 L 7955,11748"/>
 <path fill="none" stroke="rgb(179,179,179)" stroke-linejoin="round" d="M 9224,11898 L 9224,11748"/>
 <path fill="none" stroke="rgb(179,179,179)" stroke-linejoin="round" d="M 9224,11898 L 9224,11748"/>
 <path fill="none" stroke="rgb(179,179,179)" stroke-linejoin="round" d="M 10493,11898 L 10493,11748"/>
 <path fill="none" stroke="rgb(179,179,179)" stroke-linejoin="round" d="M 10493,11898 L 10493,11748"/>
 <path fill="none" stroke="rgb(179,179,179)" stroke-linejoin="round" d="M 11762,11898 L 11762,11748"/>
 <path fill="none" stroke="rgb(179,179,179)" stroke-linejoin="round" d="M 11762,11898 L 11762,11748"/>
 <path fill="none" stroke="rgb(179,179,179)" stroke-linejoin="round" d="M 13030,11898 L 13030,11748"/>
 <path fill="none" stroke="rgb(179,179,179)" stroke-linejoin="round" d="M 13030,11898 L 13030,11748"/>
 <path fill="none" stroke="rgb(179,179,179)" stroke-linejoin="round" d="M 14299,11898 L 14299,11748"/>
 <path fill="none" stroke="rgb(179,179,179)" stroke-linejoin="round" d="M 14299,11898 L 14299,11748"/>
 <path fill="none" stroke="rgb(179,179,179)" stroke-linejoin="round" d="M 15568,11898 L 15568,11748"/>
 <path fill="none" stroke="rgb(179,179,179)" stroke-linejoin="round" d="M 15568,11898 L 15568,11748"/>
 <path fill="none" stroke="rgb(179,179,179)" stroke-linejoin="round" d="M 16837,11898 L 16837,11748"/>
 <path fill="none" stroke="rgb(179,179,179)" stroke-linejoin="round" d="M 16837,11898 L 16837,11748"/>
 <path fill="none" stroke="rgb(179,179,179)" stroke-linejoin="round" d="M 18104,11898 L 18104,11748"/>
 <path fill="none" stroke="rgb(179,179,179)" stroke-linejoin="round" d="M 18104,11898 L 18104,11748"/>
 <path fill="none" stroke="rgb(179,179,179)" stroke-linejoin="round" d="M 19373,11898 L 19373,11748"/>
 <path fill="none" stroke="rgb(179,179,179)" stroke-linejoin="round" d="M 19373,11898 L 19373,11748"/>
 <path fill="none" stroke="rgb(179,179,179)" stroke-linejoin="round" d="M 20642,11898 L 20642,11748"/>
 <path fill="none" stroke="rgb(179,179,179)" stroke-linejoin="round" d="M 20642,11898 L 20642,11748"/>
 <path fill="none" stroke="rgb(179,179,179)" stroke-linejoin="round" d="M 21911,11898 L 21911,11748"/>
 <path fill="none" stroke="rgb(179,179,179)" stroke-linejoin="round" d="M 21911,11898 L 21911,11748"/>
 <path fill="none" stroke="rgb(179,179,179)" stroke-linejoin="round" d="M 23179,11898 L 23179,11748"/>
 <path fill="none" stroke="rgb(179,179,179)" stroke-linejoin="round" d="M 23179,11898 L 23179,11748"/>
 <path fill="none" stroke="rgb(179,179,179)" stroke-linejoin="round" d="M 24448,11898 L 24448,11748"/>
 <path fill="none" stroke="rgb(179,179,179)" stroke-linejoin="round" d="M 24448,11898 L 24448,11748"/>
 <path fill="none" stroke="rgb(179,179,179)" stroke-linejoin="round" d="M 25717,11898 L 25717,11748"/>
 <path fill="none" stroke="rgb(179,179,179)" stroke-linejoin="round" d="M 25717,11898 L 25717,11748"/>
 <path fill="none" stroke="rgb(179,179,179)" stroke-linejoin="round" d="M 26985,11898 L 26985,11748"/>
 <path fill="none" stroke="rgb(179,179,179)" stroke-linejoin="round" d="M 26985,11898 L 26985,11748"/>
 <path fill="none" stroke="rgb(179,179,179)" stroke-linejoin="round" d="M 28254,11898 L 28254,11748"/>
 <path fill="none" stroke="rgb(179,179,179)" stroke-linejoin="round" d="M 28254,11898 L 28254,11748"/>
 <path fill="none" stroke="rgb(179,179,179)" stroke-linejoin="round" d="M 29523,11898 L 29523,11748"/>
 <path fill="none" stroke="rgb(179,179,179)" stroke-linejoin="round" d="M 29523,11898 L 29523,11748"/>
 <path fill="none" stroke="rgb(179,179,179)" stroke-linejoin="round" d="M 30792,11898 L 30792,11748"/>
 <path fill="none" stroke="rgb(179,179,179)" stroke-linejoin="round" d="M 30792,11898 L 30792,11748"/>
 <path fill="none" stroke="rgb(179,179,179)" stroke-linejoin="round" d="M 32061,11898 L 32061,11748"/>
 <path fill="none" stroke="rgb(179,179,179)" stroke-linejoin="round" d="M 32061,11898 L 32061,11748"/>
 <path fill="none" stroke="rgb(179,179,179)" stroke-linejoin="round" d="M 1612,11748 L 32061,11748"/>
 <path fill="none" stroke="rgb(179,179,179)" stroke-linejoin="round" d="M 1462,11748 L 1612,11748"/>
 <path fill="none" stroke="rgb(179,179,179)" stroke-linejoin="round" d="M 1462,11748 L 1612,11748"/>
 <path fill="none" stroke="rgb(179,179,179)" stroke-linejoin="round" d="M 1462,10730 L 1612,10730"/>
 <path fill="none" stroke="rgb(179,179,179)" stroke-linejoin="round" d="M 1462,10730 L 1612,10730"/>
 <path fill="none" stroke="rgb(179,179,179)" stroke-linejoin="round" d="M 1462,9712 L 1612,9712"/>
 <path fill="none" stroke="rgb(179,179,179)" stroke-linejoin="round" d="M 1462,9712 L 1612,9712"/>
 <path fill="none" stroke="rgb(179,179,179)" stroke-linejoin="round" d="M 1462,8694 L 1612,8694"/>
 <path fill="none" stroke="rgb(179,179,179)" stroke-linejoin="round" d="M 1462,8694 L 1612,8694"/>
 <path fill="none" stroke="rgb(179,179,179)" stroke-linejoin="round" d="M 1462,7676 L 1612,7676"/>
 <path fill="none" stroke="rgb(179,179,179)" stroke-linejoin="round" d="M 1462,7676 L 1612,7676"/>
 <path fill="none" stroke="rgb(179,179,179)" stroke-linejoin="round" d="M 1462,6660 L 1612,6660"/>
 <path fill="none" stroke="rgb(179,179,179)" stroke-linejoin="round" d="M 1462,6660 L 1612,6660"/>
 <path fill="none" stroke="rgb(179,179,179)" stroke-linejoin="round" d="M 1462,5642 L 1612,5642"/>
 <path fill="none" stroke="rgb(179,179,179)" stroke-linejoin="round" d="M 1462,5642 L 1612,5642"/>
 <path fill="none" stroke="rgb(179,179,179)" stroke-linejoin="round" d="M 1462,4624 L 1612,4624"/>
 <path fill="none" stroke="rgb(179,179,179)" stroke-linejoin="round" d="M 1462,4624 L 1612,4624"/>
 <path fill="none" stroke="rgb(179,179,179)" stroke-linejoin="round" d="M 1462,3606 L 1612,3606"/>
 <path fill="none" stroke="rgb(179,179,179)" stroke-linejoin="round" d="M 1462,3606 L 1612,3606"/>
 <path fill="none" stroke="rgb(179,179,179)" stroke-linejoin="round" d="M 1462,2588 L 1612,2588"/>
 <path fill="none" stroke="rgb(179,179,179)" stroke-linejoin="round" d="M 1462,2588 L 1612,2588"/>
 <path fill="none" stroke="rgb(179,179,179)" stroke-linejoin="round" d="M 1462,1571 L 1612,1571"/>
 <path fill="none" stroke="rgb(179,179,179)" stroke-linejoin="round" d="M 1462,1571 L 1612,1571"/>
 <path fill="none" stroke="rgb(179,179,179)" stroke-linejoin="round" d="M 1612,11748 L 1612,1571"/>
 <path fill="rgb(0,69,134)" stroke="none" d="M 31003,11748 L 31426,11748 31426,11684 31003,11684 31003,11748 Z"/>
 <path fill="rgb(0,69,134)" stroke="none" d="M 29734,11748 L 30157,11748 30157,11638 29734,11638 29734,11748 Z"/>
 <path fill="rgb(0,69,134)" stroke="none" d="M 28466,11748 L 28889,11748 28889,6822 28466,6822 28466,11748 Z"/>
 <path fill="rgb(0,69,134)" stroke="none" d="M 27197,11748 L 27620,11748 27620,11489 27197,11489 27197,11748 Z"/>
 <path fill="rgb(0,69,134)" stroke="none" d="M 25928,11748 L 26351,11748 26351,11711 25928,11711 25928,11748 Z"/>
 <path fill="rgb(0,69,134)" stroke="none" d="M 24659,11748 L 25082,11748 25082,10601 24659,10601 24659,11748 Z"/>
 <path fill="rgb(0,69,134)" stroke="none" d="M 23391,11748 L 23814,11748 23814,11725 23391,11725 23391,11748 Z"/>
 <path fill="rgb(0,69,134)" stroke="none" d="M 22122,11748 L 22545,11748 22545,11680 22122,11680 22122,11748 Z"/>
 <path fill="rgb(0,69,134)" stroke="none" d="M 20853,11748 L 21276,11748 21276,11744 20853,11744 20853,11748 Z"/>
 <path fill="rgb(0,69,134)" stroke="none" d="M 19584,11748 L 20007,11748 20007,6713 19584,6713 19584,11748 Z"/>
 <path fill="rgb(0,69,134)" stroke="none" d="M 18316,11748 L 18739,11748 18739,11475 18316,11475 18316,11748 Z"/>
 <path fill="rgb(0,69,134)" stroke="none" d="M 17048,11748 L 17470,11748 17470,11560 17048,11560 17048,11748 Z"/>
 <path fill="rgb(0,69,134)" stroke="none" d="M 15779,11748 L 16202,11748 16202,11544 15779,11544 15779,11748 Z"/>
 <path fill="rgb(0,69,134)" stroke="none" d="M 14510,11748 L 14933,11748 14933,2588 14510,2588 14510,11748 Z"/>
 <path fill="rgb(0,69,134)" stroke="none" d="M 13242,11748 L 13665,11748 13665,11678 13242,11678 13242,11748 Z"/>
 <path fill="rgb(0,69,134)" stroke="none" d="M 11973,11748 L 12396,11748 12396,11513 11973,11513 11973,11748 Z"/>
 <path fill="rgb(0,69,134)" stroke="none" d="M 10704,11748 L 11127,11748 11127,11548 10704,11548 10704,11748 Z"/>
 <path fill="rgb(0,69,134)" stroke="none" d="M 9435,11748 L 9858,11748 9858,10560 9435,10560 9435,11748 Z"/>
 <path fill="rgb(0,69,134)" stroke="none" d="M 8167,11748 L 8590,11748 8590,8853 8167,8853 8167,11748 Z"/>
 <path fill="rgb(0,69,134)" stroke="none" d="M 6898,11748 L 7321,11748 7321,9508 6898,9508 6898,11748 Z"/>
 <path fill="rgb(0,69,134)" stroke="none" d="M 4360,11748 L 4783,11748 4783,10601 4360,10601 4360,11748 Z"/>
 <path fill="rgb(0,69,134)" stroke="none" d="M 3092,11748 L 3515,11748 3515,11554 3092,11554 3092,11748 Z"/>
 <path fill="rgb(0,69,134)" stroke="none" d="M 1823,11748 L 2246,11748 2246,7754 1823,7754 1823,11748 Z"/>
 <path fill="rgb(255,66,14)" stroke="none" d="M 31426,11748 L 31849,11748 31849,11463 31426,11463 31426,11748 Z"/>
 <path fill="rgb(255,66,14)" stroke="none" d="M 30157,11748 L 30580,11748 30580,11314 30157,11314 30157,11748 Z"/>
 <path fill="rgb(255,66,14)" stroke="none" d="M 28889,11748 L 29312,11748 29312,7036 28889,7036 28889,11748 Z"/>
 <path fill="rgb(255,66,14)" stroke="none" d="M 27620,11748 L 28043,11748 28043,11334 27620,11334 27620,11748 Z"/>
 <path fill="rgb(255,66,14)" stroke="none" d="M 26351,11748 L 26774,11748 26774,11719 26351,11719 26351,11748 Z"/>
 <path fill="rgb(255,66,14)" stroke="none" d="M 25082,11748 L 25505,11748 25505,5098 25082,5098 25082,11748 Z"/>
 <path fill="rgb(255,66,14)" stroke="none" d="M 23814,11748 L 24237,11748 24237,11389 23814,11389 23814,11748 Z"/>
 <path fill="rgb(255,66,14)" stroke="none" d="M 22545,11748 L 22968,11748 22968,11487 22545,11487 22545,11748 Z"/>
 <path fill="rgb(255,66,14)" stroke="none" d="M 21276,11748 L 21699,11748 21699,10931 21276,10931 21276,11748 Z"/>
 <path fill="rgb(255,66,14)" stroke="none" d="M 20007,11748 L 20430,11748 20430,7550 20007,7550 20007,11748 Z"/>
 <path fill="rgb(255,66,14)" stroke="none" d="M 18739,11748 L 19162,11748 19162,8513 18739,8513 18739,11748 Z"/>
 <path fill="rgb(255,66,14)" stroke="none" d="M 17470,11748 L 17893,11748 17893,10994 17470,10994 17470,11748 Z"/>
 <path fill="rgb(255,66,14)" stroke="none" d="M 16202,11748 L 16625,11748 16625,9001 16202,9001 16202,11748 Z"/>
 <path fill="rgb(255,66,14)" stroke="none" d="M 14933,11748 L 15356,11748 15356,5617 14933,5617 14933,11748 Z"/>
 <path fill="rgb(255,66,14)" stroke="none" d="M 13665,11748 L 14088,11748 14088,11057 13665,11057 13665,11748 Z"/>
 <path fill="rgb(255,66,14)" stroke="none" d="M 12396,11748 L 12819,11748 12819,11204 12396,11204 12396,11748 Z"/>
 <path fill="rgb(255,66,14)" stroke="none" d="M 11127,11748 L 11550,11748 11550,11308 11127,11308 11127,11748 Z"/>
 <path fill="rgb(255,66,14)" stroke="none" d="M 9858,11748 L 10281,11748 10281,9329 9858,9329 9858,11748 Z"/>
 <path fill="rgb(255,66,14)" stroke="none" d="M 8590,11748 L 9013,11748 9013,11045 8590,11045 8590,11748 Z"/>
 <path fill="rgb(255,66,14)" stroke="none" d="M 7321,11748 L 7744,11748 7744,3958 7321,3958 7321,11748 Z"/>
 <path fill="rgb(255,66,14)" stroke="none" d="M 6052,11748 L 6475,11748 6475,9673 6052,9673 6052,11748 Z"/>
 <path fill="rgb(255,66,14)" stroke="none" d="M 4783,11748 L 5206,11748 5206,9909 4783,9909 4783,11748 Z"/>
 <path fill="rgb(255,66,14)" stroke="none" d="M 3515,11748 L 3938,11748 3938,10579 3515,10579 3515,11748 Z"/>
 <path fill="rgb(255,66,14)" stroke="none" d="M 2246,11748 L 2669,11748 2669,6920 2246,6920 2246,11748 Z"/>
 <text class="TextShape" transform="translate(2127,12000) rotate(89.9) translate(-2127,-12000)"><tspan class="TextParagraph" font-family="Liberation Sans, sans-serif" font-size="353px" font-weight="400"><tspan class="TextPosition" x="2127" y="12000"/><tspan class="TextPosition" x="2127" y="12000"><tspan fill="rgb(0,0,0)" stroke="none">Atom</tspan></tspan></tspan></text>
 <text class="TextShape" transform="translate(3396,11999) rotate(89.9) translate(-3396,-11999)"><tspan class="TextParagraph" font-family="Liberation Sans, sans-serif" font-size="353px" font-weight="400"><tspan class="TextPosition" x="3396" y="11999"/><tspan class="TextPosition" x="3396" y="11999"><tspan fill="rgb(0,0,0)" stroke="none">Bluefish</tspan></tspan></tspan></text>
 <text class="TextShape" transform="translate(4664,12000) rotate(89.9) translate(-4664,-12000)"><tspan class="TextParagraph" font-family="Liberation Sans, sans-serif" font-size="353px" font-weight="400"><tspan class="TextPosition" x="4664" y="12000"/><tspan class="TextPosition" x="4664" y="12000"><tspan fill="rgb(0,0,0)" stroke="none">Code::Blocks</tspan></tspan></tspan></text>
 <text class="TextShape" transform="translate(5933,11999) rotate(89.9) translate(-5933,-11999)"><tspan class="TextParagraph" font-family="Liberation Sans, sans-serif" font-size="353px" font-weight="400"><tspan class="TextPosition" x="5933" y="11999"/><tspan class="TextPosition" x="5933" y="11999"><tspan fill="rgb(0,0,0)" stroke="none">CodeLite</tspan></tspan></tspan></text>
 <text class="TextShape" transform="translate(7202,12000) rotate(89.9) translate(-7202,-12000)"><tspan class="TextParagraph" font-family="Liberation Sans, sans-serif" font-size="353px" font-weight="400"><tspan class="TextPosition" x="7202" y="12000"/><tspan class="TextPosition" x="7202" y="12000"><tspan fill="rgb(0,0,0)" stroke="none">Eclipse</tspan></tspan></tspan></text>
 <text class="TextShape" transform="translate(8471,11999) rotate(89.9) translate(-8471,-11999)"><tspan class="TextParagraph" font-family="Liberation Sans, sans-serif" font-size="353px" font-weight="400"><tspan class="TextPosition" x="8471" y="11999"/><tspan class="TextPosition" x="8471" y="11999"><tspan fill="rgb(0,0,0)" stroke="none">Emacs</tspan></tspan></tspan></text>
 <text class="TextShape" transform="translate(9739,11999) rotate(89.9) translate(-9739,-11999)"><tspan class="TextParagraph" font-family="Liberation Sans, sans-serif" font-size="353px" font-weight="400"><tspan class="TextPosition" x="9739" y="11999"/><tspan class="TextPosition" x="9739" y="11999"><tspan fill="rgb(0,0,0)" stroke="none">Eric</tspan></tspan></tspan></text>
 <text class="TextShape" transform="translate(11008,11999) rotate(89.9) translate(-11008,-11999)"><tspan class="TextParagraph" font-family="Liberation Sans, sans-serif" font-size="353px" font-weight="400"><tspan class="TextPosition" x="11008" y="11999"/><tspan class="TextPosition" x="11008" y="11999"><tspan fill="rgb(0,0,0)" stroke="none">Geany</tspan></tspan></tspan></text>
 <text class="TextShape" transform="translate(12277,11999) rotate(89.9) translate(-12277,-11999)"><tspan class="TextParagraph" font-family="Liberation Sans, sans-serif" font-size="353px" font-weight="400"><tspan class="TextPosition" x="12277" y="11999"/><tspan class="TextPosition" x="12277" y="11999"><tspan fill="rgb(0,0,0)" stroke="none">gedit</tspan></tspan></tspan></text>
 <text class="TextShape" transform="translate(13546,11999) rotate(89.9) translate(-13546,-11999)"><tspan class="TextParagraph" font-family="Liberation Sans, sans-serif" font-size="353px" font-weight="400"><tspan class="TextPosition" x="13546" y="11999"/><tspan class="TextPosition" x="13546" y="11999"><tspan fill="rgb(0,0,0)" stroke="none">gVim</tspan></tspan></tspan></text>
 <text class="TextShape" transform="translate(14814,12000) rotate(89.9) translate(-14814,-12000)"><tspan class="TextParagraph" font-family="Liberation Sans, sans-serif" font-size="353px" font-weight="400"><tspan class="TextPosition" x="14814" y="12000"/><tspan class="TextPosition" x="14814" y="12000"><tspan fill="rgb(0,0,0)" stroke="none">IntellIJ IDEA</tspan></tspan></tspan></text>
 <text class="TextShape" transform="translate(16083,12000) rotate(89.9) translate(-16083,-12000)"><tspan class="TextParagraph" font-family="Liberation Sans, sans-serif" font-size="353px" font-weight="400"><tspan class="TextPosition" x="16083" y="12000"/><tspan class="TextPosition" x="16083" y="12000"><tspan fill="rgb(0,0,0)" stroke="none">jEdit</tspan></tspan></tspan></text>
 <text class="TextShape" transform="translate(17351,12000) rotate(89.9) translate(-17351,-12000)"><tspan class="TextParagraph" font-family="Liberation Sans, sans-serif" font-size="353px" font-weight="400"><tspan class="TextPosition" x="17351" y="12000"/><tspan class="TextPosition" x="17351" y="12000"><tspan fill="rgb(0,0,0)" stroke="none">Kate</tspan></tspan></tspan></text>
 <text class="TextShape" transform="translate(18620,11999) rotate(89.9) translate(-18620,-11999)"><tspan class="TextParagraph" font-family="Liberation Sans, sans-serif" font-size="353px" font-weight="400"><tspan class="TextPosition" x="18620" y="11999"/><tspan class="TextPosition" x="18620" y="11999"><tspan fill="rgb(0,0,0)" stroke="none">KDevelop</tspan></tspan></tspan></text>
 <text class="TextShape" transform="translate(19888,12000) rotate(89.9) translate(-19888,-12000)"><tspan class="TextParagraph" font-family="Liberation Sans, sans-serif" font-size="353px" font-weight="400"><tspan class="TextPosition" x="19888" y="12000"/><tspan class="TextPosition" x="19888" y="12000"><tspan fill="rgb(0,0,0)" stroke="none">Komodo Edit</tspan></tspan></tspan></text>
 <text class="TextShape" transform="translate(21157,12000) rotate(89.9) translate(-21157,-12000)"><tspan class="TextParagraph" font-family="Liberation Sans, sans-serif" font-size="353px" font-weight="400"><tspan class="TextPosition" x="21157" y="12000"/><tspan class="TextPosition" x="21157" y="12000"><tspan fill="rgb(0,0,0)" stroke="none">KWrite</tspan></tspan></tspan></text>
 <text class="TextShape" transform="translate(22426,11999) rotate(89.9) translate(-22426,-11999)"><tspan class="TextParagraph" font-family="Liberation Sans, sans-serif" font-size="353px" font-weight="400"><tspan class="TextPosition" x="22426" y="11999"/><tspan class="TextPosition" x="22426" y="11999"><tspan fill="rgb(0,0,0)" stroke="none">Leafpad</tspan></tspan></tspan></text>
 <text class="TextShape" transform="translate(23695,12000) rotate(89.9) translate(-23695,-12000)"><tspan class="TextParagraph" font-family="Liberation Sans, sans-serif" font-size="353px" font-weight="400"><tspan class="TextPosition" x="23695" y="12000"/><tspan class="TextPosition" x="23695" y="12000"><tspan fill="rgb(0,0,0)" stroke="none">Mousepad</tspan></tspan></tspan></text>
 <text class="TextShape" transform="translate(24963,12000) rotate(89.9) translate(-24963,-12000)"><tspan class="TextParagraph" font-family="Liberation Sans, sans-serif" font-size="353px" font-weight="400"><tspan class="TextPosition" x="24963" y="12000"/><tspan class="TextPosition" x="24963" y="12000"><tspan fill="rgb(0,0,0)" stroke="none">NetBeans</tspan></tspan></tspan></text>
 <text class="TextShape" transform="translate(26232,12000) rotate(89.9) translate(-26232,-12000)"><tspan class="TextParagraph" font-family="Liberation Sans, sans-serif" font-size="353px" font-weight="400"><tspan class="TextPosition" x="26232" y="12000"/><tspan class="TextPosition" x="26232" y="12000"><tspan fill="rgb(0,0,0)" stroke="none">Nano</tspan></tspan></tspan></text>
 <text class="TextShape" transform="translate(27501,11999) rotate(89.9) translate(-27501,-11999)"><tspan class="TextParagraph" font-family="Liberation Sans, sans-serif" font-size="353px" font-weight="400"><tspan class="TextPosition" x="27501" y="11999"/><tspan class="TextPosition" x="27501" y="11999"><tspan fill="rgb(0,0,0)" stroke="none">Pluma</tspan></tspan></tspan></text>
 <text class="TextShape" transform="translate(28770,11999) rotate(89.9) translate(-28770,-11999)"><tspan class="TextParagraph" font-family="Liberation Sans, sans-serif" font-size="353px" font-weight="400"><tspan class="TextPosition" x="28770" y="11999"/><tspan class="TextPosition" x="28770" y="11999"><tspan fill="rgb(0,0,0)" stroke="none">PyCharm</tspan></tspan></tspan></text>
 <text class="TextShape" transform="translate(30038,12000) rotate(89.9) translate(-30038,-12000)"><tspan class="TextParagraph" font-family="Liberation Sans, sans-serif" font-size="353px" font-weight="400"><tspan class="TextPosition" x="30038" y="12000"/><tspan class="TextPosition" x="30038" y="12000"><tspan fill="rgb(0,0,0)" stroke="none">SciTE</tspan></tspan></tspan></text>
 <text class="TextShape" transform="translate(31307,12000) rotate(89.9) translate(-31307,-12000)"><tspan class="TextParagraph" font-family="Liberation Sans, sans-serif" font-size="353px" font-weight="400"><tspan class="TextPosition" x="31307" y="12000"/><tspan class="TextPosition" x="31307" y="12000"><tspan fill="rgb(0,0,0)" stroke="none">Vim</tspan></tspan></tspan></text>
 <text class="TextShape"><tspan class="TextParagraph" font-family="Liberation Sans, sans-serif" font-size="353px" font-weight="400"><tspan class="TextPosition" x="701" y="11869"/><tspan class="TextPosition" x="701" y="11869"><tspan fill="rgb(0,0,0)" stroke="none">0.00</tspan></tspan></tspan></text>
 <text class="TextShape"><tspan class="TextParagraph" font-family="Liberation Sans, sans-serif" font-size="353px" font-weight="400"><tspan class="TextPosition" x="515" y="10851"/><tspan class="TextPosition" x="515" y="10851"><tspan fill="rgb(0,0,0)" stroke="none">50.00</tspan></tspan></tspan></text>
 <text class="TextShape"><tspan class="TextParagraph" font-family="Liberation Sans, sans-serif" font-size="353px" font-weight="400"><tspan class="TextPosition" x="330" y="9833"/><tspan class="TextPosition" x="330" y="9833"><tspan fill="rgb(0,0,0)" stroke="none">100.00</tspan></tspan></tspan></text>
 <text class="TextShape"><tspan class="TextParagraph" font-family="Liberation Sans, sans-serif" font-size="353px" font-weight="400"><tspan class="TextPosition" x="330" y="8815"/><tspan class="TextPosition" x="330" y="8815"><tspan fill="rgb(0,0,0)" stroke="none">150.00</tspan></tspan></tspan></text>
 <text class="TextShape"><tspan class="TextParagraph" font-family="Liberation Sans, sans-serif" font-size="353px" font-weight="400"><tspan class="TextPosition" x="330" y="7797"/><tspan class="TextPosition" x="330" y="7797"><tspan fill="rgb(0,0,0)" stroke="none">200.00</tspan></tspan></tspan></text>
 <text class="TextShape"><tspan class="TextParagraph" font-family="Liberation Sans, sans-serif" font-size="353px" font-weight="400"><tspan class="TextPosition" x="330" y="6780"/><tspan class="TextPosition" x="330" y="6780"><tspan fill="rgb(0,0,0)" stroke="none">250.00</tspan></tspan></tspan></text>
 <text class="TextShape"><tspan class="TextParagraph" font-family="Liberation Sans, sans-serif" font-size="353px" font-weight="400"><tspan class="TextPosition" x="330" y="5762"/><tspan class="TextPosition" x="330" y="5762"><tspan fill="rgb(0,0,0)" stroke="none">300.00</tspan></tspan></tspan></text>
 <text class="TextShape"><tspan class="TextParagraph" font-family="Liberation Sans, sans-serif" font-size="353px" font-weight="400"><tspan class="TextPosition" x="330" y="4744"/><tspan class="TextPosition" x="330" y="4744"><tspan fill="rgb(0,0,0)" stroke="none">350.00</tspan></tspan></tspan></text>
 <text class="TextShape"><tspan class="TextParagraph" font-family="Liberation Sans, sans-serif" font-size="353px" font-weight="400"><tspan class="TextPosition" x="330" y="3726"/><tspan class="TextPosition" x="330" y="3726"><tspan fill="rgb(0,0,0)" stroke="none">400.00</tspan></tspan></tspan></text>
 <text class="TextShape"><tspan class="TextParagraph" font-family="Liberation Sans, sans-serif" font-size="353px" font-weight="400"><tspan class="TextPosition" x="330" y="2708"/><tspan class="TextPosition" x="330" y="2708"><tspan fill="rgb(0,0,0)" stroke="none">450.00</tspan></tspan></tspan></text>
 <text class="TextShape"><tspan class="TextParagraph" font-family="Liberation Sans, sans-serif" font-size="353px" font-weight="400"><tspan class="TextPosition" x="330" y="1691"/><tspan class="TextPosition" x="330" y="1691"><tspan fill="rgb(0,0,0)" stroke="none">500.00</tspan></tspan></tspan></text>
 <text class="TextShape"><tspan class="TextParagraph" font-family="Liberation Sans, sans-serif" font-size="564px" font-weight="700"><tspan class="TextPosition" x="7412" y="1097"/><tspan class="TextPosition" x="7412" y="1097"><tspan fill="rgb(0,0,0)" stroke="none">Figure 1: System Resource Usage of Text Editors and IDEs under Sabayon</tspan></tspan></tspan></text>
 <path fill="rgb(0,69,134)" stroke="none" d="M 32306,7122 L 32200,7122 32200,6911 32411,6911 32411,7122 32306,7122 Z"/>
 <path fill="rgb(255,66,14)" stroke="none" d="M 32306,7619 L 32200,7619 32200,7408 32411,7408 32411,7619 32306,7619 Z"/>
 <text class="TextShape"><tspan class="TextParagraph" font-family="Liberation Sans, sans-serif" font-size="353px" font-weight="400"><tspan class="TextPosition" x="32511" y="7136"/><tspan class="TextPosition" x="32511" y="7136"><tspan fill="rgb(0,0,0)" stroke="none">Installed size</tspan></tspan></tspan></text>
 <text class="TextShape"><tspan class="TextParagraph" font-family="Liberation Sans, sans-serif" font-size="353px" font-weight="400"><tspan class="TextPosition" x="32511" y="7633"/><tspan class="TextPosition" x="32511" y="7633"><tspan fill="rgb(0,0,0)" stroke="none">RAM</tspan></tspan></tspan></text>
</svg>