<?xml version="1.0" encoding="UTF-8"?>
<!DOCTYPE svg PUBLIC "-//W3C//DTD SVG 1.1//EN" "http://www.w3.org/Graphics/SVG/1.1/DTD/svg11.dtd">
<svg width="332mm" height="146mm" viewBox="0 0 33200 14600" version="1.1" baseProfile="tiny" xmlns="http://www.w3.org/2000/svg" stroke-width="28.222" stroke-linejoin="round" xml:space="preserve">
 <path fill="rgb(255,255,255)" stroke="none" d="M 16582,14636 L 0,14636 0,0 33164,0 33164,14636 16582,14636 Z"/>
 <path fill="none" stroke="rgb(179,179,179)" stroke-linejoin="round" d="M 16230,11828 L 1946,11828 1946,1667 30513,1667 30513,11828 16230,11828 Z"/>
 <path fill="none" stroke="rgb(179,179,179)" stroke-linejoin="round" d="M 30513,11827 L 1946,11827"/>
 <path fill="none" stroke="rgb(179,179,179)" stroke-linejoin="round" d="M 30513,10556 L 1946,10556"/>
 <path fill="none" stroke="rgb(179,179,179)" stroke-linejoin="round" d="M 30513,9286 L 1946,9286"/>
 <path fill="none" stroke="rgb(179,179,179)" stroke-linejoin="round" d="M 30513,8016 L 1946,8016"/>
 <path fill="none" stroke="rgb(179,179,179)" stroke-linejoin="round" d="M 30513,6747 L 1946,6747"/>
 <path fill="none" stroke="rgb(179,179,179)" stroke-linejoin="round" d="M 30513,5476 L 1946,5476"/>
 <path fill="none" stroke="rgb(179,179,179)" stroke-linejoin="round" d="M 30513,4206 L 1946,4206"/>
 <path fill="none" stroke="rgb(179,179,179)" stroke-linejoin="round" d="M 30513,2936 L 1946,2936"/>
 <path fill="none" stroke="rgb(179,179,179)" stroke-linejoin="round" d="M 30513,1666 L 1946,1666"/>
 <path fill="none" stroke="rgb(179,179,179)" stroke-linejoin="round" d="M 1946,11977 L 1946,11827"/>
 <path fill="none" stroke="rgb(179,179,179)" stroke-linejoin="round" d="M 1946,11977 L 1946,11827"/>
 <path fill="none" stroke="rgb(179,179,179)" stroke-linejoin="round" d="M 3136,11977 L 3136,11827"/>
 <path fill="none" stroke="rgb(179,179,179)" stroke-linejoin="round" d="M 3136,11977 L 3136,11827"/>
 <path fill="none" stroke="rgb(179,179,179)" stroke-linejoin="round" d="M 4326,11977 L 4326,11827"/>
 <path fill="none" stroke="rgb(179,179,179)" stroke-linejoin="round" d="M 4326,11977 L 4326,11827"/>
 <path fill="none" stroke="rgb(179,179,179)" stroke-linejoin="round" d="M 5517,11977 L 5517,11827"/>
 <path fill="none" stroke="rgb(179,179,179)" stroke-linejoin="round" d="M 5517,11977 L 5517,11827"/>
 <path fill="none" stroke="rgb(179,179,179)" stroke-linejoin="round" d="M 6707,11977 L 6707,11827"/>
 <path fill="none" stroke="rgb(179,179,179)" stroke-linejoin="round" d="M 6707,11977 L 6707,11827"/>
 <path fill="none" stroke="rgb(179,179,179)" stroke-linejoin="round" d="M 7897,11977 L 7897,11827"/>
 <path fill="none" stroke="rgb(179,179,179)" stroke-linejoin="round" d="M 7897,11977 L 7897,11827"/>
 <path fill="none" stroke="rgb(179,179,179)" stroke-linejoin="round" d="M 9088,11977 L 9088,11827"/>
 <path fill="none" stroke="rgb(179,179,179)" stroke-linejoin="round" d="M 9088,11977 L 9088,11827"/>
 <path fill="none" stroke="rgb(179,179,179)" stroke-linejoin="round" d="M 10278,11977 L 10278,11827"/>
 <path fill="none" stroke="rgb(179,179,179)" stroke-linejoin="round" d="M 10278,11977 L 10278,11827"/>
 <path fill="none" stroke="rgb(179,179,179)" stroke-linejoin="round" d="M 11468,11977 L 11468,11827"/>
 <path fill="none" stroke="rgb(179,179,179)" stroke-linejoin="round" d="M 11468,11977 L 11468,11827"/>
 <path fill="none" stroke="rgb(179,179,179)" stroke-linejoin="round" d="M 12659,11977 L 12659,11827"/>
 <path fill="none" stroke="rgb(179,179,179)" stroke-linejoin="round" d="M 12659,11977 L 12659,11827"/>
 <path fill="none" stroke="rgb(179,179,179)" stroke-linejoin="round" d="M 13849,11977 L 13849,11827"/>
 <path fill="none" stroke="rgb(179,179,179)" stroke-linejoin="round" d="M 13849,11977 L 13849,11827"/>
 <path fill="none" stroke="rgb(179,179,179)" stroke-linejoin="round" d="M 15039,11977 L 15039,11827"/>
 <path fill="none" stroke="rgb(179,179,179)" stroke-linejoin="round" d="M 15039,11977 L 15039,11827"/>
 <path fill="none" stroke="rgb(179,179,179)" stroke-linejoin="round" d="M 16230,11977 L 16230,11827"/>
 <path fill="none" stroke="rgb(179,179,179)" stroke-linejoin="round" d="M 16230,11977 L 16230,11827"/>
 <path fill="none" stroke="rgb(179,179,179)" stroke-linejoin="round" d="M 17419,11977 L 17419,11827"/>
 <path fill="none" stroke="rgb(179,179,179)" stroke-linejoin="round" d="M 17419,11977 L 17419,11827"/>
 <path fill="none" stroke="rgb(179,179,179)" stroke-linejoin="round" d="M 18609,11977 L 18609,11827"/>
 <path fill="none" stroke="rgb(179,179,179)" stroke-linejoin="round" d="M 18609,11977 L 18609,11827"/>
 <path fill="none" stroke="rgb(179,179,179)" stroke-linejoin="round" d="M 19800,11977 L 19800,11827"/>
 <path fill="none" stroke="rgb(179,179,179)" stroke-linejoin="round" d="M 19800,11977 L 19800,11827"/>
 <path fill="none" stroke="rgb(179,179,179)" stroke-linejoin="round" d="M 20990,11977 L 20990,11827"/>
 <path fill="none" stroke="rgb(179,179,179)" stroke-linejoin="round" d="M 20990,11977 L 20990,11827"/>
 <path fill="none" stroke="rgb(179,179,179)" stroke-linejoin="round" d="M 22180,11977 L 22180,11827"/>
 <path fill="none" stroke="rgb(179,179,179)" stroke-linejoin="round" d="M 22180,11977 L 22180,11827"/>
 <path fill="none" stroke="rgb(179,179,179)" stroke-linejoin="round" d="M 23371,11977 L 23371,11827"/>
 <path fill="none" stroke="rgb(179,179,179)" stroke-linejoin="round" d="M 23371,11977 L 23371,11827"/>
 <path fill="none" stroke="rgb(179,179,179)" stroke-linejoin="round" d="M 24561,11977 L 24561,11827"/>
 <path fill="none" stroke="rgb(179,179,179)" stroke-linejoin="round" d="M 24561,11977 L 24561,11827"/>
 <path fill="none" stroke="rgb(179,179,179)" stroke-linejoin="round" d="M 25751,11977 L 25751,11827"/>
 <path fill="none" stroke="rgb(179,179,179)" stroke-linejoin="round" d="M 25751,11977 L 25751,11827"/>
 <path fill="none" stroke="rgb(179,179,179)" stroke-linejoin="round" d="M 26942,11977 L 26942,11827"/>
 <path fill="none" stroke="rgb(179,179,179)" stroke-linejoin="round" d="M 26942,11977 L 26942,11827"/>
 <path fill="none" stroke="rgb(179,179,179)" stroke-linejoin="round" d="M 28132,11977 L 28132,11827"/>
 <path fill="none" stroke="rgb(179,179,179)" stroke-linejoin="round" d="M 28132,11977 L 28132,11827"/>
 <path fill="none" stroke="rgb(179,179,179)" stroke-linejoin="round" d="M 29322,11977 L 29322,11827"/>
 <path fill="none" stroke="rgb(179,179,179)" stroke-linejoin="round" d="M 29322,11977 L 29322,11827"/>
 <path fill="none" stroke="rgb(179,179,179)" stroke-linejoin="round" d="M 30513,11977 L 30513,11827"/>
 <path fill="none" stroke="rgb(179,179,179)" stroke-linejoin="round" d="M 30513,11977 L 30513,11827"/>
 <path fill="none" stroke="rgb(179,179,179)" stroke-linejoin="round" d="M 1946,11827 L 30513,11827"/>
 <path fill="none" stroke="rgb(179,179,179)" stroke-linejoin="round" d="M 1796,11827 L 1946,11827"/>
 <path fill="none" stroke="rgb(179,179,179)" stroke-linejoin="round" d="M 1796,11827 L 1946,11827"/>
 <path fill="none" stroke="rgb(179,179,179)" stroke-linejoin="round" d="M 1796,10556 L 1946,10556"/>
 <path fill="none" stroke="rgb(179,179,179)" stroke-linejoin="round" d="M 1796,10556 L 1946,10556"/>
 <path fill="none" stroke="rgb(179,179,179)" stroke-linejoin="round" d="M 1796,9286 L 1946,9286"/>
 <path fill="none" stroke="rgb(179,179,179)" stroke-linejoin="round" d="M 1796,9286 L 1946,9286"/>
 <path fill="none" stroke="rgb(179,179,179)" stroke-linejoin="round" d="M 1796,8016 L 1946,8016"/>
 <path fill="none" stroke="rgb(179,179,179)" stroke-linejoin="round" d="M 1796,8016 L 1946,8016"/>
 <path fill="none" stroke="rgb(179,179,179)" stroke-linejoin="round" d="M 1796,6747 L 1946,6747"/>
 <path fill="none" stroke="rgb(179,179,179)" stroke-linejoin="round" d="M 1796,6747 L 1946,6747"/>
 <path fill="none" stroke="rgb(179,179,179)" stroke-linejoin="round" d="M 1796,5476 L 1946,5476"/>
 <path fill="none" stroke="rgb(179,179,179)" stroke-linejoin="round" d="M 1796,5476 L 1946,5476"/>
 <path fill="none" stroke="rgb(179,179,179)" stroke-linejoin="round" d="M 1796,4206 L 1946,4206"/>
 <path fill="none" stroke="rgb(179,179,179)" stroke-linejoin="round" d="M 1796,4206 L 1946,4206"/>
 <path fill="none" stroke="rgb(179,179,179)" stroke-linejoin="round" d="M 1796,2936 L 1946,2936"/>
 <path fill="none" stroke="rgb(179,179,179)" stroke-linejoin="round" d="M 1796,2936 L 1946,2936"/>
 <path fill="none" stroke="rgb(179,179,179)" stroke-linejoin="round" d="M 1796,1666 L 1946,1666"/>
 <path fill="none" stroke="rgb(179,179,179)" stroke-linejoin="round" d="M 1796,1666 L 1946,1666"/>
 <path fill="none" stroke="rgb(179,179,179)" stroke-linejoin="round" d="M 1946,11827 L 1946,1666"/>
 <path fill="rgb(0,69,134)" stroke="none" d="M 29521,11827 L 29917,11827 29917,11791 29521,11791 29521,11827 Z"/>
 <path fill="rgb(0,69,134)" stroke="none" d="M 28330,11827 L 28727,11827 28727,11769 28330,11769 28330,11827 Z"/>
 <path fill="rgb(0,69,134)" stroke="none" d="M 27140,11827 L 27537,11827 27537,8752 27140,8752 27140,11827 Z"/>
 <path fill="rgb(0,69,134)" stroke="none" d="M 25950,11827 L 26346,11827 26346,11635 25950,11635 25950,11827 Z"/>
 <path fill="rgb(0,69,134)" stroke="none" d="M 24759,11827 L 25156,11827 25156,11800 24759,11800 24759,11827 Z"/>
 <path fill="rgb(0,69,134)" stroke="none" d="M 23569,11827 L 23966,11827 23966,3733 23569,3733 23569,11827 Z"/>
 <path fill="rgb(0,69,134)" stroke="none" d="M 22379,11827 L 22775,11827 22775,11813 22379,11813 22379,11827 Z"/>
 <path fill="rgb(0,69,134)" stroke="none" d="M 21188,11827 L 21585,11827 21585,11823 21188,11823 21188,11827 Z"/>
 <path fill="rgb(0,69,134)" stroke="none" d="M 19998,11827 L 20395,11827 20395,11824 19998,11824 19998,11827 Z"/>
 <path fill="rgb(0,69,134)" stroke="none" d="M 18808,11827 L 19204,11827 19204,8768 18808,8768 18808,11827 Z"/>
 <path fill="rgb(0,69,134)" stroke="none" d="M 17617,11827 L 18014,11827 18014,11672 17617,11672 17617,11827 Z"/>
 <path fill="rgb(0,69,134)" stroke="none" d="M 16428,11827 L 16824,11827 16824,11736 16428,11736 16428,11827 Z"/>
 <path fill="rgb(0,69,134)" stroke="none" d="M 15238,11827 L 15634,11827 15634,11456 15238,11456 15238,11827 Z"/>
 <path fill="rgb(0,69,134)" stroke="none" d="M 14047,11827 L 14444,11827 14444,6111 14047,6111 14047,11827 Z"/>
 <path fill="rgb(0,69,134)" stroke="none" d="M 12857,11827 L 13254,11827 13254,11791 12857,11791 12857,11827 Z"/>
 <path fill="rgb(0,69,134)" stroke="none" d="M 11667,11827 L 12063,11827 12063,11646 11667,11646 11667,11827 Z"/>
 <path fill="rgb(0,69,134)" stroke="none" d="M 10476,11827 L 10873,11827 10873,11688 10476,11688 10476,11827 Z"/>
 <path fill="rgb(0,69,134)" stroke="none" d="M 9286,11827 L 9683,11827 9683,11235 9286,11235 9286,11827 Z"/>
 <path fill="rgb(0,69,134)" stroke="none" d="M 8096,11827 L 8492,11827 8492,10564 8096,10564 8096,11827 Z"/>
 <path fill="rgb(0,69,134)" stroke="none" d="M 6905,11827 L 7302,11827 7302,10455 6905,10455 6905,11827 Z"/>
 <path fill="rgb(0,69,134)" stroke="none" d="M 5715,11827 L 6112,11827 6112,11337 5715,11337 5715,11827 Z"/>
 <path fill="rgb(0,69,134)" stroke="none" d="M 4525,11827 L 4921,11827 4921,11362 4525,11362 4525,11827 Z"/>
 <path fill="rgb(0,69,134)" stroke="none" d="M 3334,11827 L 3731,11827 3731,11709 3334,11709 3334,11827 Z"/>
 <path fill="rgb(0,69,134)" stroke="none" d="M 2144,11827 L 2541,11827 2541,9272 2144,9272 2144,11827 Z"/>
 <path fill="rgb(255,66,14)" stroke="none" d="M 29917,11827 L 30314,11827 30314,11758 29917,11758 29917,11827 Z"/>
 <path fill="rgb(255,66,14)" stroke="none" d="M 28727,11827 L 29124,11827 29124,11719 28727,11719 28727,11827 Z"/>
 <path fill="rgb(255,66,14)" stroke="none" d="M 27537,11827 L 27933,11827 27933,8714 27537,8714 27537,11827 Z"/>
 <path fill="rgb(255,66,14)" stroke="none" d="M 26346,11827 L 26743,11827 26743,11644 26346,11644 26346,11827 Z"/>
 <path fill="rgb(255,66,14)" stroke="none" d="M 25156,11827 L 25553,11827 25553,11815 25156,11815 25156,11827 Z"/>
 <path fill="rgb(255,66,14)" stroke="none" d="M 23966,11827 L 24362,11827 24362,7015 23966,7015 23966,11827 Z"/>
 <path fill="rgb(255,66,14)" stroke="none" d="M 22775,11827 L 23172,11827 23172,11719 22775,11719 22775,11827 Z"/>
 <path fill="rgb(255,66,14)" stroke="none" d="M 21585,11827 L 21982,11827 21982,11750 21585,11750 21585,11827 Z"/>
 <path fill="rgb(255,66,14)" stroke="none" d="M 20395,11827 L 20791,11827 20791,11584 20395,11584 20395,11827 Z"/>
 <path fill="rgb(255,66,14)" stroke="none" d="M 19204,11827 L 19601,11827 19601,8892 19204,8892 19204,11827 Z"/>
 <path fill="rgb(255,66,14)" stroke="none" d="M 18014,11827 L 18411,11827 18411,10190 18014,10190 18014,11827 Z"/>
 <path fill="rgb(255,66,14)" stroke="none" d="M 16824,11827 L 17220,11827 17220,11519 16824,11519 16824,11827 Z"/>
 <path fill="rgb(255,66,14)" stroke="none" d="M 15634,11827 L 16031,11827 16031,10283 15634,10283 15634,11827 Z"/>
 <path fill="rgb(255,66,14)" stroke="none" d="M 14444,11827 L 14841,11827 14841,7785 14444,7785 14444,11827 Z"/>
 <path fill="rgb(255,66,14)" stroke="none" d="M 13254,11827 L 13650,11827 13650,11689 13254,11689 13254,11827 Z"/>
 <path fill="rgb(255,66,14)" stroke="none" d="M 12063,11827 L 12460,11827 12460,11619 12063,11619 12063,11827 Z"/>
 <path fill="rgb(255,66,14)" stroke="none" d="M 10873,11827 L 11270,11827 11270,11650 10873,11650 10873,11827 Z"/>
 <path fill="rgb(255,66,14)" stroke="none" d="M 9683,11827 L 10079,11827 10079,10498 9683,10498 9683,11827 Z"/>
 <path fill="rgb(255,66,14)" stroke="none" d="M 8492,11827 L 8889,11827 8889,11470 8492,11470 8492,11827 Z"/>
 <path fill="rgb(255,66,14)" stroke="none" d="M 7302,11827 L 7699,11827 7699,2294 7302,2294 7302,11827 Z"/>
 <path fill="rgb(255,66,14)" stroke="none" d="M 6112,11827 L 6508,11827 6508,10535 6112,10535 6112,11827 Z"/>
 <path fill="rgb(255,66,14)" stroke="none" d="M 4921,11827 L 5318,11827 5318,10645 4921,10645 4921,11827 Z"/>
 <path fill="rgb(255,66,14)" stroke="none" d="M 3731,11827 L 4128,11827 4128,11468 3731,11468 3731,11827 Z"/>
 <path fill="rgb(255,66,14)" stroke="none" d="M 2541,11827 L 2937,11827 2937,9330 2541,9330 2541,11827 Z"/>
 <text class="TextShape" transform="translate(2422,12079) rotate(89.9) translate(-2422,-12079)"><tspan class="TextParagraph" font-family="Liberation Sans" font-size="353px" font-weight="400"><tspan class="TextPosition" x="2422" y="12079"/><tspan class="TextPosition" x="2422" y="12079"><tspan fill="rgb(0,0,0)" stroke="none">Atom</tspan></tspan></tspan></text>
 <text class="TextShape" transform="translate(3612,12078) rotate(89.9) translate(-3612,-12078)"><tspan class="TextParagraph" font-family="Liberation Sans" font-size="353px" font-weight="400"><tspan class="TextPosition" x="3612" y="12078"/><tspan class="TextPosition" x="3612" y="12078"><tspan fill="rgb(0,0,0)" stroke="none">Bluefish</tspan></tspan></tspan></text>
 <text class="TextShape" transform="translate(4802,12079) rotate(89.9) translate(-4802,-12079)"><tspan class="TextParagraph" font-family="Liberation Sans" font-size="353px" font-weight="400"><tspan class="TextPosition" x="4802" y="12079"/><tspan class="TextPosition" x="4802" y="12079"><tspan fill="rgb(0,0,0)" stroke="none">Code::Blocks</tspan></tspan></tspan></text>
 <text class="TextShape" transform="translate(5993,12078) rotate(89.9) translate(-5993,-12078)"><tspan class="TextParagraph" font-family="Liberation Sans" font-size="353px" font-weight="400"><tspan class="TextPosition" x="5993" y="12078"/><tspan class="TextPosition" x="5993" y="12078"><tspan fill="rgb(0,0,0)" stroke="none">CodeLite</tspan></tspan></tspan></text>
 <text class="TextShape" transform="translate(7183,12079) rotate(89.9) translate(-7183,-12079)"><tspan class="TextParagraph" font-family="Liberation Sans" font-size="353px" font-weight="400"><tspan class="TextPosition" x="7183" y="12079"/><tspan class="TextPosition" x="7183" y="12079"><tspan fill="rgb(0,0,0)" stroke="none">Eclipse</tspan></tspan></tspan></text>
 <text class="TextShape" transform="translate(8373,12078) rotate(89.9) translate(-8373,-12078)"><tspan class="TextParagraph" font-family="Liberation Sans" font-size="353px" font-weight="400"><tspan class="TextPosition" x="8373" y="12078"/><tspan class="TextPosition" x="8373" y="12078"><tspan fill="rgb(0,0,0)" stroke="none">Emacs</tspan></tspan></tspan></text>
 <text class="TextShape" transform="translate(9564,12078) rotate(89.9) translate(-9564,-12078)"><tspan class="TextParagraph" font-family="Liberation Sans" font-size="353px" font-weight="400"><tspan class="TextPosition" x="9564" y="12078"/><tspan class="TextPosition" x="9564" y="12078"><tspan fill="rgb(0,0,0)" stroke="none">Eric</tspan></tspan></tspan></text>
 <text class="TextShape" transform="translate(10754,12078) rotate(89.9) translate(-10754,-12078)"><tspan class="TextParagraph" font-family="Liberation Sans" font-size="353px" font-weight="400"><tspan class="TextPosition" x="10754" y="12078"/><tspan class="TextPosition" x="10754" y="12078"><tspan fill="rgb(0,0,0)" stroke="none">Geany</tspan></tspan></tspan></text>
 <text class="TextShape" transform="translate(11944,12078) rotate(89.9) translate(-11944,-12078)"><tspan class="TextParagraph" font-family="Liberation Sans" font-size="353px" font-weight="400"><tspan class="TextPosition" x="11944" y="12078"/><tspan class="TextPosition" x="11944" y="12078"><tspan fill="rgb(0,0,0)" stroke="none">gedit</tspan></tspan></tspan></text>
 <text class="TextShape" transform="translate(13135,12078) rotate(89.9) translate(-13135,-12078)"><tspan class="TextParagraph" font-family="Liberation Sans" font-size="353px" font-weight="400"><tspan class="TextPosition" x="13135" y="12078"/><tspan class="TextPosition" x="13135" y="12078"><tspan fill="rgb(0,0,0)" stroke="none">gVim</tspan></tspan></tspan></text>
 <text class="TextShape" transform="translate(14325,12079) rotate(89.9) translate(-14325,-12079)"><tspan class="TextParagraph" font-family="Liberation Sans" font-size="353px" font-weight="400"><tspan class="TextPosition" x="14325" y="12079"/><tspan class="TextPosition" x="14325" y="12079"><tspan fill="rgb(0,0,0)" stroke="none">IntelliJ IDEA</tspan></tspan></tspan></text>
 <text class="TextShape" transform="translate(15515,12079) rotate(89.9) translate(-15515,-12079)"><tspan class="TextParagraph" font-family="Liberation Sans" font-size="353px" font-weight="400"><tspan class="TextPosition" x="15515" y="12079"/><tspan class="TextPosition" x="15515" y="12079"><tspan fill="rgb(0,0,0)" stroke="none">jEdit</tspan></tspan></tspan></text>
 <text class="TextShape" transform="translate(16705,12079) rotate(89.9) translate(-16705,-12079)"><tspan class="TextParagraph" font-family="Liberation Sans" font-size="353px" font-weight="400"><tspan class="TextPosition" x="16705" y="12079"/><tspan class="TextPosition" x="16705" y="12079"><tspan fill="rgb(0,0,0)" stroke="none">Kate</tspan></tspan></tspan></text>
 <text class="TextShape" transform="translate(17895,12079) rotate(89.9) translate(-17895,-12079)"><tspan class="TextParagraph" font-family="Liberation Sans" font-size="353px" font-weight="400"><tspan class="TextPosition" x="17895" y="12079"/><tspan class="TextPosition" x="17895" y="12079"><tspan fill="rgb(0,0,0)" stroke="none">Kdevelop</tspan></tspan></tspan></text>
 <text class="TextShape" transform="translate(19085,12079) rotate(89.9) translate(-19085,-12079)"><tspan class="TextParagraph" font-family="Liberation Sans" font-size="353px" font-weight="400"><tspan class="TextPosition" x="19085" y="12079"/><tspan class="TextPosition" x="19085" y="12079"><tspan fill="rgb(0,0,0)" stroke="none">Komodo Edit</tspan></tspan></tspan></text>
 <text class="TextShape" transform="translate(20276,12079) rotate(89.9) translate(-20276,-12079)"><tspan class="TextParagraph" font-family="Liberation Sans" font-size="353px" font-weight="400"><tspan class="TextPosition" x="20276" y="12079"/><tspan class="TextPosition" x="20276" y="12079"><tspan fill="rgb(0,0,0)" stroke="none">KWrite</tspan></tspan></tspan></text>
 <text class="TextShape" transform="translate(21466,12078) rotate(89.9) translate(-21466,-12078)"><tspan class="TextParagraph" font-family="Liberation Sans" font-size="353px" font-weight="400"><tspan class="TextPosition" x="21466" y="12078"/><tspan class="TextPosition" x="21466" y="12078"><tspan fill="rgb(0,0,0)" stroke="none">Leafpad</tspan></tspan></tspan></text>
 <text class="TextShape" transform="translate(22656,12079) rotate(89.9) translate(-22656,-12079)"><tspan class="TextParagraph" font-family="Liberation Sans" font-size="353px" font-weight="400"><tspan class="TextPosition" x="22656" y="12079"/><tspan class="TextPosition" x="22656" y="12079"><tspan fill="rgb(0,0,0)" stroke="none">Mousepad</tspan></tspan></tspan></text>
 <text class="TextShape" transform="translate(23847,12079) rotate(89.9) translate(-23847,-12079)"><tspan class="TextParagraph" font-family="Liberation Sans" font-size="353px" font-weight="400"><tspan class="TextPosition" x="23847" y="12079"/><tspan class="TextPosition" x="23847" y="12079"><tspan fill="rgb(0,0,0)" stroke="none">NetBeans</tspan></tspan></tspan></text>
 <text class="TextShape" transform="translate(25037,12079) rotate(89.9) translate(-25037,-12079)"><tspan class="TextParagraph" font-family="Liberation Sans" font-size="353px" font-weight="400"><tspan class="TextPosition" x="25037" y="12079"/><tspan class="TextPosition" x="25037" y="12079"><tspan fill="rgb(0,0,0)" stroke="none">Nano</tspan></tspan></tspan></text>
 <text class="TextShape" transform="translate(26227,12078) rotate(89.9) translate(-26227,-12078)"><tspan class="TextParagraph" font-family="Liberation Sans" font-size="353px" font-weight="400"><tspan class="TextPosition" x="26227" y="12078"/><tspan class="TextPosition" x="26227" y="12078"><tspan fill="rgb(0,0,0)" stroke="none">Pluma</tspan></tspan></tspan></text>
 <text class="TextShape" transform="translate(27418,12078) rotate(89.9) translate(-27418,-12078)"><tspan class="TextParagraph" font-family="Liberation Sans" font-size="353px" font-weight="400"><tspan class="TextPosition" x="27418" y="12078"/><tspan class="TextPosition" x="27418" y="12078"><tspan fill="rgb(0,0,0)" stroke="none">PyCharm</tspan></tspan></tspan></text>
 <text class="TextShape" transform="translate(28608,12079) rotate(89.9) translate(-28608,-12079)"><tspan class="TextParagraph" font-family="Liberation Sans" font-size="353px" font-weight="400"><tspan class="TextPosition" x="28608" y="12079"/><tspan class="TextPosition" x="28608" y="12079"><tspan fill="rgb(0,0,0)" stroke="none">SciTE</tspan></tspan></tspan></text>
 <text class="TextShape" transform="translate(29798,12079) rotate(89.9) translate(-29798,-12079)"><tspan class="TextParagraph" font-family="Liberation Sans" font-size="353px" font-weight="400"><tspan class="TextPosition" x="29798" y="12079"/><tspan class="TextPosition" x="29798" y="12079"><tspan fill="rgb(0,0,0)" stroke="none">Vim</tspan></tspan></tspan></text>
 <text class="TextShape"><tspan class="TextParagraph" font-family="Liberation Sans" font-size="353px" font-weight="400"><tspan class="TextPosition" x="1035" y="11948"/><tspan class="TextPosition" x="1035" y="11948"><tspan fill="rgb(0,0,0)" stroke="none">0.00</tspan></tspan></tspan></text>
 <text class="TextShape"><tspan class="TextParagraph" font-family="Liberation Sans" font-size="353px" font-weight="400"><tspan class="TextPosition" x="664" y="10677"/><tspan class="TextPosition" x="664" y="10677"><tspan fill="rgb(0,0,0)" stroke="none">100.00</tspan></tspan></tspan></text>
 <text class="TextShape"><tspan class="TextParagraph" font-family="Liberation Sans" font-size="353px" font-weight="400"><tspan class="TextPosition" x="664" y="9407"/><tspan class="TextPosition" x="664" y="9407"><tspan fill="rgb(0,0,0)" stroke="none">200.00</tspan></tspan></tspan></text>
 <text class="TextShape"><tspan class="TextParagraph" font-family="Liberation Sans" font-size="353px" font-weight="400"><tspan class="TextPosition" x="664" y="8137"/><tspan class="TextPosition" x="664" y="8137"><tspan fill="rgb(0,0,0)" stroke="none">300.00</tspan></tspan></tspan></text>
 <text class="TextShape"><tspan class="TextParagraph" font-family="Liberation Sans" font-size="353px" font-weight="400"><tspan class="TextPosition" x="664" y="6867"/><tspan class="TextPosition" x="664" y="6867"><tspan fill="rgb(0,0,0)" stroke="none">400.00</tspan></tspan></tspan></text>
 <text class="TextShape"><tspan class="TextParagraph" font-family="Liberation Sans" font-size="353px" font-weight="400"><tspan class="TextPosition" x="664" y="5596"/><tspan class="TextPosition" x="664" y="5596"><tspan fill="rgb(0,0,0)" stroke="none">500.00</tspan></tspan></tspan></text>
 <text class="TextShape"><tspan class="TextParagraph" font-family="Liberation Sans" font-size="353px" font-weight="400"><tspan class="TextPosition" x="664" y="4326"/><tspan class="TextPosition" x="664" y="4326"><tspan fill="rgb(0,0,0)" stroke="none">600.00</tspan></tspan></tspan></text>
 <text class="TextShape"><tspan class="TextParagraph" font-family="Liberation Sans" font-size="353px" font-weight="400"><tspan class="TextPosition" x="664" y="3056"/><tspan class="TextPosition" x="664" y="3056"><tspan fill="rgb(0,0,0)" stroke="none">700.00</tspan></tspan></tspan></text>
 <text class="TextShape"><tspan class="TextParagraph" font-family="Liberation Sans" font-size="353px" font-weight="400"><tspan class="TextPosition" x="664" y="1786"/><tspan class="TextPosition" x="664" y="1786"><tspan fill="rgb(0,0,0)" stroke="none">800.00</tspan></tspan></tspan></text>
 <text class="TextShape"><tspan class="TextParagraph" font-family="Liberation Sans" font-size="564px" font-weight="700"><tspan class="TextPosition" x="6779" y="1100"/><tspan class="TextPosition" x="6779" y="1100"><tspan fill="rgb(0,0,0)" stroke="none">Figure 2: System Resource Usage of Text Editors and IDEs under Manjaro</tspan></tspan></tspan></text>
 <path fill="rgb(0,69,134)" stroke="none" d="M 30829,7174 L 30723,7174 30723,6963 30934,6963 30934,7174 30829,7174 Z"/>
 <path fill="rgb(255,66,14)" stroke="none" d="M 30829,7671 L 30723,7671 30723,7460 30934,7460 30934,7671 30829,7671 Z"/>
 <text class="TextShape"><tspan class="TextParagraph" font-family="Liberation Sans" font-size="353px" font-weight="400"><tspan class="TextPosition" x="31034" y="7188"/><tspan class="TextPosition" x="31034" y="7188"><tspan fill="rgb(0,0,0)" stroke="none">Installed size</tspan></tspan></tspan></text>
 <text class="TextShape"><tspan class="TextParagraph" font-family="Liberation Sans" font-size="353px" font-weight="400"><tspan class="TextPosition" x="31034" y="7685"/><tspan class="TextPosition" x="31034" y="7685"><tspan fill="rgb(0,0,0)" stroke="none">RAM</tspan></tspan></tspan></text>
</svg>